<?xml version="1.0" encoding="utf-8"?>
<!-- Generator: Adobe Illustrator 26.5.0, SVG Export Plug-In . SVG Version: 6.00 Build 0)  -->
<svg version="1.1" id="Layer_1" xmlns="http://www.w3.org/2000/svg" xmlns:xlink="http://www.w3.org/1999/xlink" x="0px" y="0px"
	 viewBox="0 0 22 22" style="enable-background:new 0 0 22 22;" xml:space="preserve">
<style type="text/css">
	.st0{fill:#FFFFFF;}
</style>
<path id="Path_284" class="st0" d="M19.47,4.17H2.67c-1.16,0-2.1,0.94-2.1,2.1l0,0v9.45c0,1.16,0.94,2.1,2.1,2.1h0h16.8
	c1.16,0,2.1-0.94,2.1-2.1l0,0V6.27C21.57,5.12,20.63,4.17,19.47,4.17L19.47,4.17z M17.49,6.27l-6.42,4.01L4.65,6.27H17.49z
	 M2.67,15.72V7.51l7.84,4.9c0.34,0.21,0.77,0.21,1.11,0l7.84-4.9v8.21H2.67z"/>
</svg>
