<?xml version="1.0" encoding="utf-8"?>
<!-- Generator: Adobe Illustrator 26.5.0, SVG Export Plug-In . SVG Version: 6.00 Build 0)  -->
<svg version="1.1" id="Layer_1" xmlns="http://www.w3.org/2000/svg" xmlns:xlink="http://www.w3.org/1999/xlink" x="0px" y="0px"
	 viewBox="0 0 22 22" style="enable-background:new 0 0 22 22;" xml:space="preserve">
<style type="text/css">
	.st0{fill:#FFFFFF;}
</style>
<g id="Group_410" transform="translate(73 -436)">
	<path id="Path_282" class="st0" d="M-53.64,448.7h-4.42c-1.19,0-2.16,0.94-2.21,2.12c-2.8-0.44-5-2.64-5.43-5.44
		c1.18-0.06,2.11-1.03,2.11-2.21v-4.42c0-1.22-0.99-2.21-2.21-2.21h-4.42c-1.22,0-2.21,0.99-2.21,2.21v5.53
		c0.01,7.32,5.94,13.26,13.26,13.26h5.53c1.22,0,2.21-0.99,2.21-2.21v-4.42C-51.43,449.69-52.42,448.7-53.64,448.7z M-59.17,455.33
		c-6.1-0.01-11.05-4.95-11.05-11.05v-5.53h4.42v4.42h-1.11c-0.3,0-0.58,0.12-0.79,0.33c-0.21,0.21-0.32,0.5-0.32,0.79
		c-0.05,4.82,3.82,8.78,8.65,8.82c0.07,0,0.13,0,0.2,0c0.61,0,1.1-0.49,1.1-1.11v-1.11h4.42v4.42L-59.17,455.33z"/>
</g>
</svg>
